<svg width="232" height="138" viewBox="0 0 232 138" fill="none" xmlns="http://www.w3.org/2000/svg">
<g clip-path="url(#clip0)" filter="url(#filter0_d)">
<path d="M17.4549 121.797C17.1865 121.802 16.9269 121.894 16.7141 122.057C16.0827 120.389 15.1053 119.316 14.0072 119.316C12.9091 119.316 11.9317 120.389 11.3003 122.057C11.0876 121.894 10.828 121.802 10.5595 121.797C9.31199 121.797 8.30067 123.907 8.30067 126.509H19.7138C19.7138 123.907 18.7024 121.797 17.4549 121.797Z" fill="#00BAFC"/>
<path d="M62.8028 126.246H4.93692V126.772H62.8028V126.246Z" fill="#3F3D56"/>
<path d="M223.142 110.743C222.874 110.748 222.614 110.84 222.401 111.003C221.77 109.335 220.792 108.263 219.694 108.263C218.596 108.263 217.619 109.335 216.987 111.003C216.775 110.84 216.515 110.748 216.247 110.743C214.999 110.743 213.988 112.853 213.988 115.455H225.401C225.401 112.853 224.389 110.743 223.142 110.743Z" fill="#00BAFC"/>
<path d="M198.585 24.1599H143.483V23.0242H118.498V24.1599H63.1697C62.6803 24.1599 62.1956 24.2563 61.7434 24.4436C61.2912 24.6309 60.8803 24.9055 60.5342 25.2516C60.1881 25.5977 59.9136 26.0085 59.7263 26.4607C59.5389 26.9129 59.4425 27.3976 59.4425 27.8871V103.338C59.4425 104.326 59.8352 105.274 60.5342 105.973C61.2332 106.672 62.1812 107.065 63.1697 107.065H198.585C199.573 107.065 200.521 106.672 201.22 105.973C201.919 105.274 202.312 104.326 202.312 103.338V27.8871C202.312 27.3976 202.216 26.9129 202.028 26.4607C201.841 26.0085 201.567 25.5977 201.22 25.2516C200.874 24.9055 200.463 24.6309 200.011 24.4436C199.559 24.2563 199.074 24.1599 198.585 24.1599Z" fill="#3F3D56"/>
<path opacity="0.2" d="M197.314 30.7458H64.4407V105.703H197.314V30.7458Z" fill="black"/>
<path d="M130.764 28.7026C131.516 28.7026 132.127 28.0925 132.127 27.3398C132.127 26.5871 131.516 25.977 130.764 25.977C130.011 25.977 129.401 26.5871 129.401 27.3398C129.401 28.0925 130.011 28.7026 130.764 28.7026Z" fill="#00BAFC"/>
<path d="M227.063 114.929H34.2645V115.455H227.063V114.929Z" fill="#3F3D56"/>
<path d="M149.032 58.7512V53.2055C149.032 52.312 148.856 51.4272 148.514 50.6017C148.172 49.7762 147.671 49.0261 147.039 48.3942C146.407 47.7624 145.657 47.2612 144.831 46.9193C144.006 46.5773 143.121 46.4013 142.227 46.4013H136.682C136.682 45.6527 134.276 45.0394 131.219 44.9813V38.2936C132.178 38.1728 133.055 37.691 133.672 36.9464C134.288 36.2017 134.597 35.2502 134.537 34.2855C134.476 33.3208 134.05 32.4154 133.346 31.7536C132.641 31.0919 131.711 30.7235 130.744 30.7235C129.778 30.7235 128.847 31.0919 128.143 31.7536C127.438 32.4154 127.012 33.3208 126.952 34.2855C126.891 35.2502 127.201 36.2017 127.817 36.9464C128.433 37.691 129.31 38.1728 130.269 38.2936V44.9813C127.213 45.0394 124.807 45.6527 124.807 46.4013H118.311C117.418 46.4013 116.533 46.5773 115.707 46.9193C114.882 47.2612 114.132 47.7624 113.5 48.3942C112.868 49.0261 112.367 49.7762 112.025 50.6017C111.683 51.4272 111.507 52.312 111.507 53.2055V58.7512C110.72 58.7512 110.082 61.4094 110.082 64.6886C110.082 67.9678 110.72 70.626 111.507 70.626V77.1216C111.507 78.0152 111.683 78.9 112.025 79.7255C112.367 80.551 112.868 81.3011 113.5 81.9329C114.132 82.5648 114.882 83.066 115.707 83.4079C116.533 83.7499 117.418 83.9259 118.311 83.9259H142.227C143.121 83.9259 144.006 83.7499 144.831 83.4079C145.657 83.066 146.407 82.5648 147.039 81.9329C147.671 81.3011 148.172 80.551 148.514 79.7255C148.856 78.9 149.032 78.0152 149.032 77.1216V70.626C149.819 70.626 150.457 67.9677 150.457 64.6886C150.457 61.4094 149.819 58.7512 149.032 58.7512Z" fill="#00BAFC"/>
<path d="M119.674 48.5388H140.865C142.464 48.5388 143.998 49.174 145.128 50.3047C146.259 51.4353 146.894 52.9688 146.894 54.5678V75.7593C146.894 77.3583 146.259 78.8918 145.128 80.0225C143.998 81.1532 142.464 81.7884 140.865 81.7884H119.674C118.075 81.7884 116.541 81.1532 115.41 80.0225C114.28 78.8918 113.645 77.3583 113.645 75.7593V54.5679C113.645 52.9688 114.28 51.4353 115.41 50.3047C116.541 49.174 118.075 48.5388 119.674 48.5388Z" fill="#3F3D56"/>
<path d="M122.669 64.3324C121.536 64.3311 120.449 63.8803 119.648 63.0788C118.847 62.2774 118.396 61.1908 118.394 60.0574C118.394 59.9944 118.42 59.934 118.464 59.8895C118.509 59.8449 118.569 59.8199 118.632 59.8199C118.695 59.8199 118.755 59.8449 118.8 59.8895C118.844 59.934 118.869 59.9944 118.869 60.0574C118.869 61.0652 119.27 62.0318 119.982 62.7444C120.695 63.457 121.662 63.8574 122.669 63.8574C123.677 63.8574 124.644 63.457 125.356 62.7444C126.069 62.0318 126.469 61.0652 126.469 60.0574C126.469 59.9944 126.494 59.934 126.539 59.8895C126.583 59.8449 126.644 59.8199 126.707 59.8199C126.77 59.8199 126.83 59.8449 126.875 59.8895C126.919 59.934 126.944 59.9944 126.944 60.0574C126.943 61.1908 126.492 62.2774 125.691 63.0788C124.889 63.8803 123.803 64.3311 122.669 64.3324Z" fill="#00BAFC"/>
<path d="M130.269 72.4073C129.388 72.4063 128.543 72.0556 127.919 71.4323C127.296 70.809 126.945 69.9638 126.944 69.0823C126.944 69.0193 126.969 68.9589 127.014 68.9144C127.058 68.8698 127.119 68.8448 127.182 68.8448C127.245 68.8448 127.305 68.8698 127.35 68.9144C127.394 68.9589 127.419 69.0193 127.419 69.0823C127.419 69.8382 127.72 70.5631 128.254 71.0975C128.789 71.632 129.513 71.9323 130.269 71.9323C131.025 71.9323 131.75 71.632 132.285 71.0975C132.819 70.5631 133.119 69.8382 133.119 69.0823C133.119 69.0193 133.144 68.9589 133.189 68.9144C133.233 68.8698 133.294 68.8448 133.357 68.8448C133.42 68.8448 133.48 68.8698 133.525 68.9144C133.569 68.9589 133.594 69.0193 133.594 69.0823C133.593 69.9638 133.243 70.809 132.619 71.4323C131.996 72.0556 131.151 72.4063 130.269 72.4073Z" fill="#00BAFC"/>
<path d="M137.869 64.3324C136.736 64.3311 135.649 63.8803 134.848 63.0788C134.046 62.2774 133.596 61.1908 133.594 60.0574C133.594 59.9944 133.619 59.934 133.664 59.8895C133.708 59.8449 133.769 59.8199 133.832 59.8199C133.895 59.8199 133.955 59.8449 134 59.8895C134.044 59.934 134.069 59.9944 134.069 60.0574C134.069 61.0652 134.47 62.0318 135.182 62.7444C135.895 63.457 136.861 63.8574 137.869 63.8574C138.877 63.8574 139.844 63.457 140.556 62.7444C141.269 62.0318 141.669 61.0652 141.669 60.0574C141.669 59.9944 141.694 59.934 141.739 59.8895C141.783 59.8449 141.844 59.8199 141.907 59.8199C141.97 59.8199 142.03 59.8449 142.075 59.8895C142.119 59.934 142.144 59.9944 142.144 60.0574C142.143 61.1908 141.692 62.2774 140.891 63.0788C140.089 63.8803 139.003 64.3311 137.869 64.3324Z" fill="#00BAFC"/>
<path d="M122.669 62.4324C123.85 62.4324 124.807 61.4754 124.807 60.2949C124.807 59.1144 123.85 58.1574 122.669 58.1574C121.489 58.1574 120.532 59.1144 120.532 60.2949C120.532 61.4754 121.489 62.4324 122.669 62.4324Z" fill="#00BAFC"/>
<path d="M137.869 62.4324C139.05 62.4324 140.007 61.4754 140.007 60.2949C140.007 59.1144 139.05 58.1574 137.869 58.1574C136.689 58.1574 135.732 59.1144 135.732 60.2949C135.732 61.4754 136.689 62.4324 137.869 62.4324Z" fill="#00BAFC"/>
<path d="M130.269 71.2198C131.319 71.2198 132.169 70.7944 132.169 70.2698C132.169 69.7451 131.319 69.3198 130.269 69.3198C129.22 69.3198 128.369 69.7451 128.369 70.2698C128.369 70.7944 129.22 71.2198 130.269 71.2198Z" fill="#00BAFC"/>
<path d="M206.043 104.339H193.075V103.405C193.075 103.381 193.07 103.357 193.061 103.334C193.052 103.312 193.038 103.291 193.021 103.274C193.004 103.257 192.983 103.243 192.961 103.234C192.938 103.225 192.914 103.22 192.89 103.22H188.444C188.419 103.22 188.395 103.225 188.373 103.234C188.35 103.243 188.33 103.257 188.313 103.274C188.296 103.291 188.282 103.312 188.273 103.334C188.263 103.357 188.259 103.381 188.259 103.405V104.339H185.48V103.405C185.48 103.381 185.475 103.357 185.466 103.334C185.456 103.312 185.443 103.291 185.425 103.274C185.408 103.257 185.388 103.243 185.365 103.234C185.343 103.225 185.319 103.22 185.294 103.22H180.848C180.824 103.22 180.8 103.225 180.778 103.234C180.755 103.243 180.735 103.257 180.717 103.274C180.7 103.291 180.687 103.312 180.677 103.334C180.668 103.357 180.663 103.381 180.663 103.405V104.339H177.884V103.405C177.884 103.381 177.88 103.357 177.87 103.334C177.861 103.312 177.847 103.291 177.83 103.274C177.813 103.257 177.792 103.243 177.77 103.234C177.747 103.225 177.723 103.22 177.699 103.22H173.253C173.229 103.22 173.205 103.225 173.182 103.234C173.16 103.243 173.139 103.257 173.122 103.274C173.105 103.291 173.091 103.312 173.082 103.334C173.073 103.357 173.068 103.381 173.068 103.405V104.339H170.289V103.405C170.289 103.381 170.284 103.357 170.275 103.334C170.266 103.312 170.252 103.291 170.235 103.274C170.217 103.257 170.197 103.243 170.175 103.234C170.152 103.225 170.128 103.22 170.104 103.22H165.658C165.633 103.22 165.609 103.225 165.587 103.234C165.564 103.243 165.544 103.257 165.527 103.274C165.509 103.291 165.496 103.312 165.486 103.334C165.477 103.357 165.472 103.381 165.472 103.405V104.339H162.693V103.405C162.693 103.381 162.689 103.357 162.679 103.334C162.67 103.312 162.656 103.291 162.639 103.274C162.622 103.257 162.602 103.243 162.579 103.234C162.557 103.225 162.533 103.22 162.508 103.22H158.062C158.038 103.22 158.014 103.225 157.991 103.234C157.969 103.243 157.948 103.257 157.931 103.274C157.914 103.291 157.9 103.312 157.891 103.334C157.882 103.357 157.877 103.381 157.877 103.405V104.339H155.098V103.405C155.098 103.381 155.093 103.357 155.084 103.334C155.075 103.312 155.061 103.291 155.044 103.274C155.027 103.257 155.006 103.243 154.984 103.234C154.961 103.225 154.937 103.22 154.913 103.22H150.467C150.442 103.22 150.418 103.225 150.396 103.234C150.373 103.243 150.353 103.257 150.336 103.274C150.319 103.291 150.305 103.312 150.296 103.334C150.286 103.357 150.281 103.381 150.281 103.405V104.339H147.503V103.405C147.503 103.381 147.498 103.357 147.489 103.334C147.479 103.312 147.466 103.291 147.448 103.274C147.431 103.257 147.411 103.243 147.388 103.234C147.366 103.225 147.342 103.22 147.317 103.22H112.49C112.465 103.22 112.441 103.225 112.419 103.234C112.396 103.243 112.376 103.257 112.359 103.274C112.341 103.291 112.328 103.312 112.318 103.334C112.309 103.357 112.304 103.381 112.304 103.405V104.339H109.526V103.405C109.526 103.381 109.521 103.357 109.512 103.334C109.502 103.312 109.489 103.291 109.471 103.274C109.454 103.257 109.434 103.243 109.411 103.234C109.389 103.225 109.365 103.22 109.34 103.22H104.894C104.87 103.22 104.846 103.225 104.823 103.234C104.801 103.243 104.78 103.257 104.763 103.274C104.746 103.291 104.732 103.312 104.723 103.334C104.714 103.357 104.709 103.381 104.709 103.405V104.339H101.93V103.405C101.93 103.381 101.925 103.357 101.916 103.334C101.907 103.312 101.893 103.291 101.876 103.274C101.859 103.257 101.838 103.243 101.816 103.234C101.793 103.225 101.769 103.22 101.745 103.22H97.2988C97.2745 103.22 97.2504 103.225 97.2279 103.234C97.2055 103.243 97.185 103.257 97.1678 103.274C97.1506 103.291 97.137 103.312 97.1277 103.334C97.1184 103.357 97.1136 103.381 97.1136 103.405V104.339H94.3347V103.405C94.3348 103.381 94.33 103.357 94.3207 103.334C94.3113 103.312 94.2977 103.291 94.2805 103.274C94.2633 103.257 94.2429 103.243 94.2204 103.234C94.1979 103.225 94.1738 103.22 94.1495 103.22H89.7034C89.6791 103.22 89.655 103.225 89.6325 103.234C89.61 103.243 89.5896 103.257 89.5724 103.274C89.5552 103.291 89.5416 103.312 89.5323 103.334C89.5229 103.357 89.5181 103.381 89.5182 103.405V104.339H86.7393V103.405C86.7393 103.381 86.7345 103.357 86.7252 103.334C86.7159 103.312 86.7023 103.291 86.6851 103.274C86.6679 103.257 86.6475 103.243 86.625 103.234C86.6025 103.225 86.5784 103.22 86.5541 103.22H82.108C82.0837 103.22 82.0596 103.225 82.0371 103.234C82.0146 103.243 81.9942 103.257 81.977 103.274C81.9598 103.291 81.9461 103.312 81.9368 103.334C81.9275 103.357 81.9227 103.381 81.9227 103.405V104.339H79.1439V103.405C79.1439 103.381 79.1391 103.357 79.1298 103.334C79.1205 103.312 79.1069 103.291 79.0897 103.274C79.0725 103.257 79.052 103.243 79.0296 103.234C79.0071 103.225 78.983 103.22 78.9587 103.22H74.5126C74.4882 103.22 74.4642 103.225 74.4417 103.234C74.4192 103.243 74.3988 103.257 74.3816 103.274C74.3644 103.291 74.3507 103.312 74.3414 103.334C74.3321 103.357 74.3273 103.381 74.3273 103.405V104.339H71.5485V103.405C71.5485 103.381 71.5437 103.357 71.5344 103.334C71.5251 103.312 71.5114 103.291 71.4942 103.274C71.477 103.257 71.4566 103.243 71.4341 103.234C71.4117 103.225 71.3876 103.22 71.3633 103.22H66.9172C66.8928 103.22 66.8687 103.225 66.8463 103.234C66.8238 103.243 66.8034 103.257 66.7862 103.274C66.769 103.291 66.7553 103.312 66.746 103.334C66.7367 103.357 66.7319 103.381 66.7319 103.405V104.339H58.2102C57.6263 104.339 57.0482 104.454 56.5088 104.678C55.9693 104.901 55.4792 105.229 55.0663 105.642C54.6535 106.055 54.326 106.545 54.1026 107.084C53.8791 107.624 53.7641 108.202 53.7641 108.786V110.796C53.7641 111.975 54.2325 113.106 55.0663 113.94C55.9002 114.774 57.031 115.242 58.2102 115.242H206.043C207.222 115.242 208.353 114.774 209.187 113.94C210.021 113.106 210.489 111.975 210.489 110.796V108.786C210.489 108.202 210.374 107.624 210.151 107.084C209.927 106.545 209.6 106.055 209.187 105.642C208.774 105.229 208.284 104.901 207.744 104.678C207.205 104.454 206.627 104.339 206.043 104.339Z" fill="#3F3D56"/>
<path d="M173.406 83.6289H84.7657V84.1549H173.406V83.6289Z" fill="#00BAFC"/>
<path d="M91.0783 83.3659H69.2471C69.9457 75.1392 69.9457 66.868 69.2471 58.6413H91.0783C89.8763 67.1093 89.806 75.3641 91.0783 83.3659Z" fill="#D0CDE1"/>
<path d="M88.185 63.6388H72.4034V64.691H88.185V63.6388Z" fill="#3F3D56"/>
<path d="M88.185 67.0582H72.4034V68.1103H88.185V67.0582Z" fill="#3F3D56"/>
<path d="M88.185 70.4775H72.4034V71.5296H88.185V70.4775Z" fill="#3F3D56"/>
<path d="M88.185 73.8969H72.4034V74.949H88.185V73.8969Z" fill="#3F3D56"/>
<path d="M88.185 77.3162H72.4034V78.3683H88.185V77.3162Z" fill="#3F3D56"/>
<path d="M33.0661 0.843624C33.0661 0.843624 29.636 -0.38144 27.4309 4.51881C25.2257 9.41906 21.7956 14.8093 21.7956 14.8093L23.7557 15.2994C23.7557 15.2994 24.2457 11.8692 25.4708 11.3792L24.9807 15.7894C24.9807 15.7894 39.6815 20.9346 46.2968 15.2994L46.0518 13.5843C46.0518 13.5843 47.0318 13.8293 47.0318 15.2994L47.7669 14.5643C47.7669 14.5643 47.0318 13.0942 44.8267 11.1341C43.3794 9.84762 42.882 7.40003 42.7111 5.86975C42.5831 4.59195 42.0718 3.38268 41.2444 2.40053C39.779 0.702209 37.1088 -1.10286 33.0661 0.843624Z" fill="#2F2E41"/>
<path d="M23.1739 108.929L24.226 114.979L28.4345 114.189L29.2235 108.929H23.1739Z" fill="#FFB9B9"/>
<path d="M29.2235 112.348L23.4369 112.874L23.6999 117.609L23.4369 123.658C23.4369 123.658 20.0175 130.497 25.0151 129.971C30.0126 129.445 29.4865 126.815 29.4865 126.815L30.8016 125.237L30.0126 121.291L29.2235 112.348Z" fill="#2F2E41"/>
<path d="M46.8463 108.929L45.7942 114.979L41.5858 114.189L40.7967 108.929H46.8463Z" fill="#FFB9B9"/>
<path d="M40.7967 112.348L46.5833 112.874L46.3202 117.609L46.5833 123.658C46.5833 123.658 50.0026 130.497 45.0051 129.971C40.0076 129.445 40.5337 126.815 40.5337 126.815L39.2185 125.237L40.0076 121.291L40.7967 112.348Z" fill="#2F2E41"/>
<path d="M34.7471 17.1326C38.0882 17.1326 40.7967 14.4241 40.7967 11.083C40.7967 7.74185 38.0882 5.03334 34.7471 5.03334C31.406 5.03334 28.6975 7.74185 28.6975 11.083C28.6975 14.4241 31.406 17.1326 34.7471 17.1326Z" fill="#FFB9B9"/>
<path d="M30.8017 14.2393L31.5907 23.7082L38.9555 23.4452C38.9555 23.4452 36.8513 17.3956 38.1664 15.0284L30.8017 14.2393Z" fill="#FFB9B9"/>
<path d="M35.0101 21.8671L38.0396 19.9776L41.3228 21.604L46.5833 23.9713L44.7421 46.3286C44.7421 46.3286 48.9505 60.269 48.1615 67.1077C47.3724 73.9464 56.8413 108.14 49.2136 109.718C41.5858 111.296 36.0622 112.874 35.7992 110.244C35.5362 107.614 35.0101 67.3707 35.0101 67.3707C35.0101 67.3707 34.221 109.981 31.0647 110.507C27.9084 111.033 14.231 113.137 15.2831 109.981C16.3352 106.825 23.4369 51.5891 26.8563 48.4328L27.3823 45.8025L22.9109 24.4973L31.3078 20.3124L35.0101 21.8671Z" fill="#2F2E41"/>
<path d="M19.2284 54.4824L18.9654 65.2665C18.9654 65.2665 16.4335 75.9135 20.7243 75.8506C25.015 75.7876 21.8587 65.2665 21.8587 65.2665L23.6999 54.7454L19.2284 54.4824Z" fill="#FFB9B9"/>
<path d="M59.0015 43.1641L66.3935 51.0206C66.3935 51.0206 75.3838 57.261 72.146 60.0773C68.9083 62.8935 64.2386 52.9513 64.2386 52.9513L55.8467 46.3437L59.0015 43.1641Z" fill="#FFB9B9"/>
<path d="M26.9878 47.7751L45.0025 47.2228L44.7684 45.9997V45.9944L27.356 45.6788L26.9878 47.7751Z" fill="#D0CDE1"/>
<path d="M30.6702 48.3013C31.5418 48.3013 32.2483 47.5947 32.2483 46.7231C32.2483 45.8515 31.5418 45.1449 30.6702 45.1449C29.7986 45.1449 29.092 45.8515 29.092 46.7231C29.092 47.5947 29.7986 48.3013 30.6702 48.3013Z" fill="#2F2E41"/>
<path d="M25.0151 24.7604L23.3054 24.3658C23.3054 24.3658 21.0697 25.2864 20.5436 28.1797C20.0175 31.073 13.1789 53.6933 16.5982 55.0085C20.0175 56.3236 25.0151 56.8496 25.0151 56.3236C25.0151 55.7975 27.1193 36.0705 27.1193 36.0705L25.0151 24.7604Z" fill="#2F2E41"/>
<path d="M41.1032 25.763L46.5833 23.9713C46.5833 23.9713 49.2135 23.9713 49.2135 26.8646C49.2135 28.0581 54.2545 37.8622 54.2545 37.8622C54.2545 37.8622 66.3668 46.4961 64.5126 46.8051C61.3563 47.3312 59.5151 52.8547 59.5151 52.8547L47.6789 42.3336L41.1032 25.763Z" fill="#2F2E41"/>
<path d="M27.3688 11.5335C27.3688 11.5335 29.3289 8.83834 31.044 8.34832C32.7591 7.85829 33.0041 5.40817 33.0041 5.40817C33.0041 5.40817 37.4143 10.3084 40.1095 10.5534C42.8046 10.7984 40.3545 4.67312 40.3545 4.67312L35.4542 3.44806L30.799 3.93808L27.1238 6.3882L27.3688 11.5335Z" fill="#2F2E41"/>
<path d="M28.829 11.346C29.2648 11.346 29.6181 10.816 29.6181 10.1624C29.6181 9.50865 29.2648 8.97873 28.829 8.97873C28.3932 8.97873 28.0399 9.50865 28.0399 10.1624C28.0399 10.816 28.3932 11.346 28.829 11.346Z" fill="#FFB9B9"/>
</g>
<defs>
<filter id="filter0_d" x="0.93692" y="0" width="230.126" height="138" filterUnits="userSpaceOnUse" color-interpolation-filters="sRGB">
<feFlood flood-opacity="0" result="BackgroundImageFix"/>
<feColorMatrix in="SourceAlpha" type="matrix" values="0 0 0 0 0 0 0 0 0 0 0 0 0 0 0 0 0 0 127 0"/>
<feOffset dy="4"/>
<feGaussianBlur stdDeviation="2"/>
<feColorMatrix type="matrix" values="0 0 0 0 0 0 0 0 0 0 0 0 0 0 0 0 0 0 0.25 0"/>
<feBlend mode="normal" in2="BackgroundImageFix" result="effect1_dropShadow"/>
<feBlend mode="normal" in="SourceGraphic" in2="effect1_dropShadow" result="shape"/>
</filter>
<clipPath id="clip0">
<rect width="222.126" height="130" fill="white" transform="translate(4.93692)"/>
</clipPath>
</defs>
</svg>
